<?xml version="1.0" encoding="UTF-8" standalone="no"?>
<!-- Created with Inkscape (http://www.inkscape.org/) -->

<svg
   xmlns:dc="http://purl.org/dc/elements/1.1/"
   xmlns:cc="http://creativecommons.org/ns#"
   xmlns:rdf="http://www.w3.org/1999/02/22-rdf-syntax-ns#"
   xmlns:svg="http://www.w3.org/2000/svg"
   xmlns="http://www.w3.org/2000/svg"
   xmlns:xlink="http://www.w3.org/1999/xlink"
   xmlns:sodipodi="http://sodipodi.sourceforge.net/DTD/sodipodi-0.dtd"
   xmlns:inkscape="http://www.inkscape.org/namespaces/inkscape"
   id="svg3039"
   version="1.1"
   inkscape:version="0.48.0 r9654"
   width="290"
   height="290"
   sodipodi:docname="gqrcode.svg">
  <metadata
     id="metadata3045">
    <rdf:RDF>
      <cc:Work
         rdf:about="">
        <dc:format>image/svg+xml</dc:format>
        <dc:type
           rdf:resource="http://purl.org/dc/dcmitype/StillImage" />
        <dc:title></dc:title>
      </cc:Work>
    </rdf:RDF>
  </metadata>
  <defs
     id="defs3043">
    <linearGradient
       id="linearGradient3846">
      <stop
         style="stop-color:#000000;stop-opacity:0.86274511;"
         offset="0"
         id="stop3848" />
      <stop
         id="stop3854"
         offset="0.5"
         style="stop-color:#000000;stop-opacity:0.49803922;" />
      <stop
         style="stop-color:#000000;stop-opacity:0.86274511;"
         offset="1"
         id="stop3850" />
    </linearGradient>
    <linearGradient
       inkscape:collect="always"
       xlink:href="#linearGradient3846"
       id="linearGradient3852"
       x1="119.72332"
       y1="223.57706"
       x2="117.66798"
       y2="21.837921"
       gradientUnits="userSpaceOnUse"
       gradientTransform="translate(20,20.000015)" />
  </defs>
  <sodipodi:namedview
     pagecolor="#ffffff"
     bordercolor="#666666"
     borderopacity="1"
     objecttolerance="10"
     gridtolerance="10"
     guidetolerance="10"
     inkscape:pageopacity="0"
     inkscape:pageshadow="2"
     inkscape:window-width="1280"
     inkscape:window-height="995"
     id="namedview3041"
     showgrid="false"
     fit-margin-top="40"
     fit-margin-left="40"
     fit-margin-right="40"
     fit-margin-bottom="40"
     inkscape:zoom="0.87241379"
     inkscape:cx="145"
     inkscape:cy="141.56127"
     inkscape:window-x="0"
     inkscape:window-y="0"
     inkscape:window-maximized="1"
     inkscape:current-layer="svg3039" />
  <rect
     style="fill:url(#linearGradient3852);fill-opacity:1;stroke:none"
     id="rect3844"
     width="210"
     height="210"
     x="40"
     y="40" />
  <path
     style="fill:#ffffff;fill-opacity:1;stroke:none"
     d="m 61,201.00001 0,-28 28,0 28,0 0,28 0,28 -28,0 -28,0 0,-28 z m 48,0 0,-20 -20,0 -20,0 0,20 0,20 20,0 20,0 0,-20 z m -32,0 0,-12 12,0 12,0 0,12 0,12 -12,0 -12,0 0,-12 z M 61,89.000008 l 0,-27.999994 28,0 28,0 0,27.999994 0,28.000002 -28,0 -28,0 0,-28.000002 z m 48,0 0,-20 -20,0 -20,0 0,20 0,20.000002 20,0 20,0 0,-20.000002 z m -32,0 0,-12 12,0 12,0 0,12 0,12.000002 -12,0 -12,0 0,-12.000002 z m 96.8,0 0,-27.999994 27.6,0 27.6,0 0,27.999994 0,28.000002 -27.6,0 -27.6,0 0,-28.000002 z m 47.2,0 0,-20 -20,0 -20,0 0,20 0,20.000002 20,0 20,0 0,-20.000002 z m -32,0 0,-12 12,0 12,0 0,12 0,12.000002 -12,0 -12,0 0,-12.000002 z"
     id="path3049"
     inkscape:connector-curvature="0" />
</svg>
